<?xml version="1.0" standalone="no"?>
<svg xmlns="http://www.w3.org/2000/svg" 
viewBox="0 0 1440 320">
    <path 
        fill="#3F3D56" 
        fill-opacity="1" 
        d="M0,224L48,202.7C96,181,192,139,288,117.3C384,96,480,96,576,106.7C672,117,768,139,864,154.7C960,171,1056,181,1152,192C1248,203,1344,213,1392,218.7L1440,224L1440,320L1392,320C1344,320,1248,320,1152,320C1056,320,960,320,864,320C768,320,672,320,576,320C480,320,384,320,288,320C192,320,96,320,48,320L0,320Z">
    </path>
</svg>